<svg xmlns="http://www.w3.org/2000/svg" version="1.1" xmlns:xlink="http://www.w3.org/1999/xlink" xmlns:svgjs="http://svgjs.dev/svgjs" viewBox="0 0 6.641229290774629 1.6205477402485275"><g transform="matrix(1,0,0,1,1.4795720092990698,0.28527387012426375)"><rect width="6.641229290774629" height="6.641229290774629" x="-1.4795720092990698" y="-2.7956146453873147" fill="#000000"></rect><g><path d=" M 0.9075 0.9810000000000001 L 0.9075 1.05 L 0.183 1.05 L 0.183 0 L 0.885 0 L 0.885 0.06900000000000006 L 0.2595 0.06900000000000006 L 0.2595 0.483 L 0.8190000000000001 0.483 L 0.8190000000000001 0.5505 L 0.2595 0.5505 L 0.2595 0.9810000000000001 L 0.9075 0.9810000000000001 M 1.387509521484375 0.06900000000000006 L 1.009509521484375 0.06900000000000006 L 1.009509521484375 0 L 1.842009521484375 0 L 1.842009521484375 0.06900000000000006 L 1.4640095214843751 0.06900000000000006 L 1.4640095214843751 1.05 L 1.387509521484375 1.05 L 1.387509521484375 0.06900000000000006 M 2.759991943359375 1.05 L 2.509491943359375 0.6990000000000001 Q 2.453991943359375 0.7065 2.407491943359375 0.7065 L 2.107491943359375 0.7065 L 2.107491943359375 1.05 L 2.030991943359375 1.05 L 2.030991943359375 0 L 2.407491943359375 0 Q 2.6054919433593753 0 2.717991943359375 0.09375 Q 2.830491943359375 0.1875 2.830491943359375 0.354 Q 2.830491943359375 0.47850000000000004 2.766741943359375 0.56325 Q 2.702991943359375 0.648 2.584491943359375 0.6825000000000001 L 2.846991943359375 1.05 L 2.759991943359375 1.05 M 2.407491943359375 0.639 Q 2.575491943359375 0.639 2.663991943359375 0.5647500000000001 Q 2.752491943359375 0.49050000000000005 2.752491943359375 0.354 Q 2.752491943359375 0.21750000000000003 2.663991943359375 0.14325 Q 2.575491943359375 0.06900000000000006 2.407491943359375 0.06900000000000006 L 2.107491943359375 0.06900000000000006 L 2.107491943359375 0.639 L 2.407491943359375 0.639 M 3.760447998046875 0.7545000000000001 L 3.151447998046875 0.7545000000000001 L 3.017947998046875 1.05 L 2.935447998046875 1.05 L 3.418447998046875 0 L 3.494947998046875 0 L 3.977947998046875 1.05 L 3.8954479980468752 1.05 L 3.760447998046875 0.7545000000000001 M 3.7319479980468753 0.6900000000000001 L 3.455947998046875 0.08400000000000007 L 3.181447998046875 0.6900000000000001 L 3.7319479980468753 0.6900000000000001 M 4.78046484375 1.05 L 4.41896484375 0.5640000000000001 L 4.05896484375 1.05 L 3.96896484375 1.05 L 4.37246484375 0.5085000000000001 L 3.99746484375 0 L 4.08746484375 0 L 4.42196484375 0.4515 L 4.75646484375 0 L 4.8419648437500005 0 L 4.4669648437500005 0.507 L 4.87046484375 1.05 L 4.78046484375 1.05" fill="#ffe398" fill-rule="nonzero"></path></g><g></g><g clip-path="url(#SvgjsClipPath1037)"><g clip-path="url(#a9bc5e78e-9a6d-43c4-989d-b93ac999c051ba9b6202-dc8e-4f52-a525-115088db06d1)"><path d=" M -0.4017672111572663 0.16492255526203947 C -0.4799690286812818 0.09830457807344722 -0.5708398544276732 0.046286249163134674 -0.6699801824451198 0.011929136565576981 L -0.6699801824451198 0.011406164089937117 C -0.6735363952794711 0.010174999720201597 -0.6772669322723688 0.009349139019086947 -0.6808405775225745 0.008165913792951757 C -0.6953312732017626 0.003365462276974096 -0.710013725455352 -0.0009534187510184811 -0.724844353243706 -0.004971590605518154 C -0.7314773874764051 -0.006773666594493868 -0.7380341548897399 -0.008719560014270558 -0.7447347397338757 -0.010356028052627001 C -0.7661504626113285 -0.015590110912989397 -0.7878058812067827 -0.020227133530329594 -0.8098404548470761 -0.023776809208735233 L -0.8097707251836573 0.07862773867749706 L -0.8097707251836573 0.5628610281843449 C -0.8495863629957061 0.5403448840560665 -0.8949455090495377 0.5264381743080097 -0.9439741786407756 0.5264381743080097 C -1.0953289502469 0.5264381743080097 -1.2180248301879593 0.6489466557786313 -1.2180248301879593 0.8000835221865723 C -1.2180248301879593 0.951209493334604 -1.0953289502469 1.0737245119611711 -0.9439741786407756 1.0737245119611711 C -0.7926150489306877 1.0737245119611711 -0.6699191689896284 0.951209493334604 -0.6699191689896284 0.8000835221865723 L -0.6699257061455739 0.8000246877830629 L -0.6699692871852105 0.16043806628342758 C -0.6083653086068156 0.18683728104333192 -0.5511651940837047 0.22159098110158318 -0.5001884520207082 0.26370987685842934 Z M -0.8097707251836574 0.799329570200858 L -0.8097707251836574 0.7994450599558953 C -0.8098055900153668 0.8738269993557577 -0.8701849413799718 0.9341170095891076 -0.9446889076908169 0.9341170095891076 C -1.0192103064175166 0.9341170095891076 -1.0796201645098675 0.8737943135760303 -1.0796201645098675 0.7993884046043676 C -1.0796201645098675 0.7249803165807231 -1.0192103064175166 0.6646554415156639 -0.9446889076908169 0.6646554415156639 C -0.8701849413799718 0.6646554415156639 -0.8098055900153668 0.7249476308009957 -0.8097707251836574 0.799329570200858" fill="#23953c" transform="matrix(1,0,0,1,0,0)" fill-rule="nonzero"></path></g><g clip-path="url(#a9bc5e78e-9a6d-43c4-989d-b93ac999c051ba9b6202-dc8e-4f52-a525-115088db06d1)"><path d=" M -0.4021790519818328 0.16514699761616822 C -0.4803154979463933 0.09856824336324894 -0.5711078778214385 0.04657606307671841 -0.6701632228115938 0.012240740998979031 L -0.6701632228115938 0.01171558947135732 C -0.6737172565939631 0.010486604153603626 -0.6774434354828972 0.009662922504470844 -0.6810149016811212 0.00847969727833562 C -0.6954925230484184 0.0036792457623579557 -0.7101640800420985 -0.0006352771616709718 -0.7249816335185615 -0.004651269964188819 C -0.7316103096472969 -0.006453345953164533 -0.7381605399046863 -0.008399239372941222 -0.7448545875928767 -0.010035707411297666 C -0.7662528780544747 -0.015265432167696371 -0.7878908642340744 -0.019898096681072883 -0.8099058264065312 -0.023445593307496695 L -0.8098360967431124 0.07890012017522612 L -0.8098360967431124 0.5628632072363268 C -0.8496190487754338 0.5403601374199394 -0.8949389718935925 0.5264621438798098 -0.9439240604451937 0.5264621438798098 C -1.0951524470363716 0.5264621438798098 -1.2177437324823028 0.6489030747389946 -1.2177437324823028 0.7999549581196442 C -1.2177437324823028 0.9509959462403845 -1.0951524470363716 1.073445593307497 -0.9439240604451936 1.073445593307497 C -0.7926934948020338 1.073445593307497 -0.6701022093561024 0.9509959462403845 -0.6701022093561024 0.7999549581196442 C -0.6701022093561024 0.7999331675998259 -0.670108746512048 0.7999179142359529 -0.670108746512048 0.7998961237161346 L -0.6701523275516846 0.16066686674152014 C -0.6086006462208536 0.18704864908556965 -0.5514506498933248 0.22178491672796627 -0.500517488869965 0.26387984291301225 Z M -0.8098360967431124 0.7992031851859118 L -0.8098360967431124 0.7993186749409489 C -0.8098709615748219 0.8736570333011748 -0.8702001947438447 0.9339143577547971 -0.9446409685472167 0.9339143577547971 C -1.0190991747664433 0.9339143577547971 -1.0794545565592482 0.873626526573429 -1.0794545565592482 0.7992598405374394 C -1.0794545565592482 0.7248931545014498 -1.0190991747664433 0.6646031442680999 -0.9446409685472167 0.6646031442680999 C -0.8702001947438447 0.6646031442680999 -0.8098709615748219 0.724862647773704 -0.8098360967431124 0.7992031851859116 Z" fill="none" transform="matrix(1,0,0,1,0,0)" fill-rule="nonzero" stroke-dasharray="none" stroke-miterlimit="10" stroke-linejoin="miter" stroke-linecap="butt" stroke-width="0.004358103963665594" stroke="#ffe398"></path></g></g></g><defs><clipPath id="SvgjsClipPath1037"><path d=" M -1.2199227844641356 -0.025624645289329506 h 0.8199227844641356 v 1.101249290578659 h -0.8199227844641356 Z"></path></clipPath><clipPath id="a9bc5e78e-9a6d-43c4-989d-b93ac999c051ba9b6202-dc8e-4f52-a525-115088db06d1"><path d=" M -1.2199227844641356 1.0756224662373475 L -0.39897366651655675 1.0756224662373475 L -0.39897366651655675 -0.02600597938615015 L -1.2199227844641356 -0.02600597938615015 Z"></path></clipPath></defs></svg>